<svg width="593" height="593" viewBox="0 0 593 593" fill="none" xmlns="http://www.w3.org/2000/svg">
<g clip-path="url(#clip0)">
<path d="M589.173 356.232L484.417 554.492C479.292 564.35 464.764 574.777 453.545 574.777L33.449 574.854C24.574 574.854 16.065 571.336 9.794 565.06C3.523 558.783 0 550.283 0 541.405L0.068 215.196C0.068 196.748 15.023 181.779 33.473 181.761L64.188 181.732V210.228H43.639C39.617 210.228 35.754 211.824 32.908 214.67C30.065 217.516 28.466 221.376 28.466 225.401L28.496 531.197C28.496 539.585 35.293 546.37 43.672 546.37H64.717L163.997 345.534C169.606 334.315 180.205 325.248 191.408 325.248H434.548L434.631 244.425C450.507 245.897 463.037 259.066 463.037 275.318V325.249H574.55C587.719 325.384 598.808 338.406 589.173 356.232ZM83.558 445.272C82.651 345.303 83.558 45.388 83.558 45.388C83.558 30.256 95.864 17.959 110.981 17.959H330.595C334.113 17.959 337.469 19.431 339.846 22.02L410.846 99.161C412.974 101.484 414.167 104.525 414.167 107.676V307.515H391.133V124.932C391.133 121.773 388.568 119.207 385.405 119.207H331.062C324.702 119.207 319.53 114.044 319.53 107.696V46.721C319.53 43.561 316.965 40.996 313.802 40.996H110.995C108.572 40.996 106.6 42.967 106.6 45.388V420.127L88.974 455.787C88.975 455.781 83.649 455.391 83.558 445.272ZM342.588 96.182H376.8L342.588 58.994V96.182ZM355.065 142.667H142.813C134.993 142.667 128.645 149.021 128.645 156.841C128.645 164.655 134.999 171.012 142.813 171.012H355.071C362.891 171.012 369.258 164.65 369.258 156.841C369.245 149.027 362.88 142.667 355.065 142.667ZM369.245 239.376C369.245 231.562 362.886 225.214 355.065 225.214H142.813C134.993 225.214 128.645 231.574 128.645 239.376C128.645 247.19 134.999 253.538 142.813 253.538H355.071C362.88 253.539 369.245 247.19 369.245 239.376ZM128.636 322.47C128.636 330.283 134.993 336.632 142.807 336.632H147.896C156.854 311.665 179.06 308.308 179.06 308.308H142.807C135.005 308.308 128.636 314.656 128.636 322.47Z" fill="#49BE15"/>
</g>
<defs>
<clipPath id="clip0">
<rect width="592.813" height="592.814" fill="white"/>
</clipPath>
</defs>
</svg>
