<svg width="480" height="480" viewBox="0 0 480 480" fill="none" xmlns="http://www.w3.org/2000/svg">
<path d="M155.2 241.7C221.9 241.7 276 187.6 276 120.9C276 54.2 221.9 0 155.2 0C88.5 0 34.4 54.1 34.4 120.8C34.4 187.5 88.5 241.7 155.2 241.7ZM113 168.6C114.1 164.6 115.2 160.7 116.4 156.7C117.8 152.1 119.1 151.6 123.3 153.8C130.5 157.5 138.1 159.6 146.1 160.6C151.2 161.2 156.3 160.7 161 158.6C169.9 154.7 171.3 144.4 163.8 138.2C161.2 136.1 158.3 134.5 155.3 133.2C147.5 129.8 139.4 127.2 132 122.8C120.1 115.7 112.5 105.8 113.4 91.3C114.4 74.9 123.7 64.6 138.7 59.2C144.9 56.9 144.9 57 145 50.5C145 48.3 145 46.1 145 43.9C145.1 39 146 38.2 150.8 38C152.3 38 153.8 38 155.3 38C165.7 38 165.7 38 165.7 48.4C165.7 55.7 165.7 55.8 173 56.9C178.6 57.8 183.9 59.4 189.1 61.7C192 63 193 65 192.2 68C190.9 72.5 189.7 77 188.2 81.4C186.8 85.6 185.5 86.2 181.5 84.3C173.4 80.4 164.9 78.7 155.9 79.2C153.5 79.3 151.3 79.6 149.1 80.6C141.4 84 140.1 92.5 146.7 97.8C150 100.5 153.8 102.4 157.8 104C164.6 106.8 171.5 109.6 178.1 113.2C198.8 124.7 204.4 150.7 189.8 168.4C184.5 174.8 177.7 179.1 169.6 181.3C166.1 182.3 164.5 184.1 164.7 187.7C164.9 191.3 164.7 194.8 164.7 198.4C164.7 201.6 163.1 203.3 159.9 203.4C156.1 203.5 152.2 203.5 148.4 203.4C145 203.3 143.4 201.4 143.4 198.1C143.4 195.5 143.4 192.9 143.3 190.3C143.2 184.6 143.1 184.3 137.5 183.4C130.4 182.3 123.5 180.7 117 177.5C112.1 175.2 111.6 173.9 113 168.6Z" fill="#49BE15"/>
<path d="M426.2 251.8H412.1C402.8 223.3 384.6 198 360.3 178.4C360.3 177.5 360.1 176.5 359.9 175.6C354.8 157.7 361.1 141.4 368.4 129.7C373.5 121.5 366.9 111 357.3 112.2C335.8 114.9 321 122.8 310.8 131.7C303.8 137.8 298.8 146 296.6 155.1C281.2 218.9 223.7 266.4 155.2 266.4C121.9 266.4 91.3 255.2 66.8 236.4C58.3 254.8 53.7 274.9 53.7 296C53.7 307.4 55.1 318.5 57.7 329.2C57.7 329.2 57.7 329.4 57.8 329.7C60.5 340.8 64.6 351.5 69.8 361.6C76.7 376.5 86.7 393.9 100.5 408C120.4 428.5 123.8 453.9 124.3 464.9V469.6C124.3 469.8 124.3 470 124.3 470.2C124.3 470.3 124.3 470.3 124.3 470.3C124.7 475.7 129.2 480 134.7 480H197.9C203.6 480 208.3 475.4 208.3 469.6V454C217.5 455.2 226.9 455.9 236.4 455.9C243.9 455.9 251.2 455.5 258.5 454.7V469.6C258.5 475.3 263.1 480 268.9 480H332.3C338 480 342.7 475.4 342.7 469.6V454C342.8 448.8 344.6 428.1 364.2 410.4C364.9 409.8 365.6 409.2 366.3 408.6C366.5 408.4 366.7 408.3 366.9 408.1C388.7 388.7 404.8 364.5 413.1 337.5H426.4C437 337.5 445.6 328.9 445.6 318.3V271C445.4 260.4 436.8 251.8 426.2 251.8ZM347.1 255.2C338.4 255.2 331.4 248.2 331.4 239.5C331.4 230.8 338.4 223.8 347.1 223.8C355.8 223.8 362.8 230.8 362.8 239.5C362.8 248.2 355.8 255.2 347.1 255.2Z" fill="#49BE15"/>
</svg>
