<svg width="512" height="512" viewBox="0 0 512 512" fill="none" xmlns="http://www.w3.org/2000/svg">
<path d="M256 0C114.845 0 0 114.839 0 256C0 397.161 114.845 512 256 512C397.161 512 512 397.161 512 256C512 114.839 397.155 0 256 0ZM256 474.628C135.45 474.628 37.372 376.55 37.372 256C37.372 135.45 135.45 37.372 256 37.372C376.55 37.372 474.628 135.449 474.628 255.994C474.628 376.55 376.55 474.628 256 474.628Z" fill="#49BE15"/>
<path d="M343.202 256H262.229V143.883C262.229 133.562 253.864 125.197 243.543 125.197C233.222 125.197 224.857 133.562 224.857 143.883V274.686C224.857 285.007 233.222 293.372 243.543 293.372H343.202C353.523 293.372 361.888 285.007 361.888 274.686C361.888 264.365 353.523 256 343.202 256Z" fill="#49BE15"/>
</svg>
